<mxfile host="app.diagrams.net" modified="2020-08-13T23:25:27.710Z" agent="5.0 (X11)" etag="s_tm18vUxz9xmGA5P3AM" version="13.6.2" type="github">
  <diagram id="ZWVUAkutEbxDgf1W69uN" name="Page-1">
    <mxGraphModel dx="1888" dy="512" grid="1" gridSize="10" guides="1" tooltips="1" connect="1" arrows="1" fold="1" page="1" pageScale="1" pageWidth="850" pageHeight="1100" math="0" shadow="0">
      <root>
        <mxCell id="0" />
        <mxCell id="1" parent="0" />
        <mxCell id="k6UncSOy2LOsXlVmriAz-1" value="User" style="rounded=1;whiteSpace=wrap;html=1;" vertex="1" parent="1">
          <mxGeometry x="-780" y="70" width="120" height="60" as="geometry" />
        </mxCell>
        <mxCell id="k6UncSOy2LOsXlVmriAz-2" value="KEYBE CRM" style="rounded=1;whiteSpace=wrap;html=1;" vertex="1" parent="1">
          <mxGeometry x="-450" y="70" width="120" height="60" as="geometry" />
        </mxCell>
        <mxCell id="k6UncSOy2LOsXlVmriAz-3" value="Authorize and authencation IDP Comfama" style="rounded=1;whiteSpace=wrap;html=1;fillColor=#f8cecc;strokeColor=#b85450;" vertex="1" parent="1">
          <mxGeometry x="-130" y="70" width="120" height="60" as="geometry" />
        </mxCell>
        <mxCell id="k6UncSOy2LOsXlVmriAz-4" value="" style="endArrow=none;html=1;" edge="1" parent="1">
          <mxGeometry width="50" height="50" relative="1" as="geometry">
            <mxPoint x="-720.5" y="370" as="sourcePoint" />
            <mxPoint x="-720.5" y="130" as="targetPoint" />
            <Array as="points">
              <mxPoint x="-720.5" y="270" />
            </Array>
          </mxGeometry>
        </mxCell>
        <mxCell id="k6UncSOy2LOsXlVmriAz-5" value="" style="endArrow=none;html=1;" edge="1" parent="1">
          <mxGeometry width="50" height="50" relative="1" as="geometry">
            <mxPoint x="-390" y="370" as="sourcePoint" />
            <mxPoint x="-390" y="130" as="targetPoint" />
            <Array as="points">
              <mxPoint x="-390" y="270" />
            </Array>
          </mxGeometry>
        </mxCell>
        <mxCell id="k6UncSOy2LOsXlVmriAz-6" value="" style="endArrow=none;html=1;" edge="1" parent="1">
          <mxGeometry width="50" height="50" relative="1" as="geometry">
            <mxPoint x="-70.5" y="370" as="sourcePoint" />
            <mxPoint x="-70.5" y="130" as="targetPoint" />
            <Array as="points">
              <mxPoint x="-70.5" y="270" />
            </Array>
          </mxGeometry>
        </mxCell>
        <mxCell id="k6UncSOy2LOsXlVmriAz-7" value="Service Provider" style="text;html=1;strokeColor=none;fillColor=none;align=center;verticalAlign=middle;whiteSpace=wrap;rounded=0;" vertex="1" parent="1">
          <mxGeometry x="-410" y="30" width="40" height="20" as="geometry" />
        </mxCell>
        <mxCell id="k6UncSOy2LOsXlVmriAz-8" value="Identity Provider" style="text;html=1;strokeColor=none;fillColor=none;align=center;verticalAlign=middle;whiteSpace=wrap;rounded=0;" vertex="1" parent="1">
          <mxGeometry x="-100" y="30" width="40" height="20" as="geometry" />
        </mxCell>
        <mxCell id="k6UncSOy2LOsXlVmriAz-9" value="" style="endArrow=classic;html=1;" edge="1" parent="1">
          <mxGeometry width="50" height="50" relative="1" as="geometry">
            <mxPoint x="-720" y="170" as="sourcePoint" />
            <mxPoint x="-390" y="170" as="targetPoint" />
            <Array as="points">
              <mxPoint x="-630" y="170" />
            </Array>
          </mxGeometry>
        </mxCell>
        <mxCell id="k6UncSOy2LOsXlVmriAz-10" value="" style="endArrow=classic;html=1;" edge="1" parent="1">
          <mxGeometry width="50" height="50" relative="1" as="geometry">
            <mxPoint x="-400" y="180" as="sourcePoint" />
            <mxPoint x="-70" y="180" as="targetPoint" />
            <Array as="points">
              <mxPoint x="-310" y="180" />
            </Array>
          </mxGeometry>
        </mxCell>
        <mxCell id="k6UncSOy2LOsXlVmriAz-11" value="" style="endArrow=classic;html=1;" edge="1" parent="1">
          <mxGeometry width="50" height="50" relative="1" as="geometry">
            <mxPoint x="-70" y="230" as="sourcePoint" />
            <mxPoint x="-390" y="230" as="targetPoint" />
            <Array as="points">
              <mxPoint x="-300" y="230" />
            </Array>
          </mxGeometry>
        </mxCell>
        <mxCell id="k6UncSOy2LOsXlVmriAz-12" value="" style="endArrow=classic;html=1;" edge="1" parent="1">
          <mxGeometry width="50" height="50" relative="1" as="geometry">
            <mxPoint x="-390" y="240" as="sourcePoint" />
            <mxPoint x="-710" y="240" as="targetPoint" />
            <Array as="points">
              <mxPoint x="-620" y="240" />
            </Array>
          </mxGeometry>
        </mxCell>
        <mxCell id="k6UncSOy2LOsXlVmriAz-13" value="" style="endArrow=classic;html=1;" edge="1" parent="1">
          <mxGeometry width="50" height="50" relative="1" as="geometry">
            <mxPoint x="-720" y="300" as="sourcePoint" />
            <mxPoint x="-390" y="300" as="targetPoint" />
            <Array as="points">
              <mxPoint x="-630" y="300" />
            </Array>
          </mxGeometry>
        </mxCell>
        <mxCell id="k6UncSOy2LOsXlVmriAz-14" value="" style="endArrow=classic;html=1;" edge="1" parent="1">
          <mxGeometry width="50" height="50" relative="1" as="geometry">
            <mxPoint x="-400" y="300" as="sourcePoint" />
            <mxPoint x="-70" y="300" as="targetPoint" />
            <Array as="points">
              <mxPoint x="-310" y="300" />
            </Array>
          </mxGeometry>
        </mxCell>
        <mxCell id="k6UncSOy2LOsXlVmriAz-15" value="" style="endArrow=classic;html=1;" edge="1" parent="1">
          <mxGeometry width="50" height="50" relative="1" as="geometry">
            <mxPoint x="-70" y="340" as="sourcePoint" />
            <mxPoint x="-390" y="340" as="targetPoint" />
            <Array as="points">
              <mxPoint x="-300" y="340" />
            </Array>
          </mxGeometry>
        </mxCell>
        <mxCell id="k6UncSOy2LOsXlVmriAz-16" value="" style="endArrow=classic;html=1;" edge="1" parent="1">
          <mxGeometry width="50" height="50" relative="1" as="geometry">
            <mxPoint x="-390" y="350" as="sourcePoint" />
            <mxPoint x="-710" y="350" as="targetPoint" />
            <Array as="points">
              <mxPoint x="-620" y="350" />
            </Array>
          </mxGeometry>
        </mxCell>
        <mxCell id="k6UncSOy2LOsXlVmriAz-17" value="&lt;div&gt;usuario peditacion&lt;/div&gt;&lt;div&gt;app.keybe.bio&lt;br&gt;&lt;/div&gt;" style="text;html=1;strokeColor=none;fillColor=none;align=center;verticalAlign=middle;whiteSpace=wrap;rounded=0;" vertex="1" parent="1">
          <mxGeometry x="-630" y="140" width="140" height="20" as="geometry" />
        </mxCell>
        <mxCell id="k6UncSOy2LOsXlVmriAz-18" value="Esta autenticado? o existe? " style="text;html=1;strokeColor=none;fillColor=none;align=center;verticalAlign=middle;whiteSpace=wrap;rounded=0;" vertex="1" parent="1">
          <mxGeometry x="-240" y="140" width="40" height="20" as="geometry" />
        </mxCell>
        <mxCell id="k6UncSOy2LOsXlVmriAz-19" value="Login page " style="text;html=1;strokeColor=none;fillColor=none;align=center;verticalAlign=middle;whiteSpace=wrap;rounded=0;" vertex="1" parent="1">
          <mxGeometry x="-330" y="210" width="40" height="20" as="geometry" />
        </mxCell>
        <mxCell id="k6UncSOy2LOsXlVmriAz-20" value="Login page " style="text;html=1;strokeColor=none;fillColor=none;align=center;verticalAlign=middle;whiteSpace=wrap;rounded=0;" vertex="1" parent="1">
          <mxGeometry x="-580" y="210" width="40" height="20" as="geometry" />
        </mxCell>
        <mxCell id="k6UncSOy2LOsXlVmriAz-21" value="&lt;div&gt;usuario registrado.&lt;/div&gt;&lt;div&gt;Token&lt;/div&gt;&lt;div&gt;&lt;br&gt;&lt;/div&gt;" style="text;html=1;strokeColor=none;fillColor=none;align=center;verticalAlign=middle;whiteSpace=wrap;rounded=0;" vertex="1" parent="1">
          <mxGeometry x="-230" y="210" width="40" height="20" as="geometry" />
        </mxCell>
        <mxCell id="k6UncSOy2LOsXlVmriAz-22" value="&lt;div&gt;usuario registrado.&lt;/div&gt;&lt;div&gt;Token&lt;/div&gt;&lt;div&gt;&lt;br&gt;&lt;/div&gt;" style="text;html=1;strokeColor=none;fillColor=none;align=center;verticalAlign=middle;whiteSpace=wrap;rounded=0;" vertex="1" parent="1">
          <mxGeometry x="-510" y="220" width="40" height="20" as="geometry" />
        </mxCell>
        <mxCell id="k6UncSOy2LOsXlVmriAz-24" value="crendenciales / accesos" style="text;html=1;strokeColor=none;fillColor=none;align=center;verticalAlign=middle;whiteSpace=wrap;rounded=0;" vertex="1" parent="1">
          <mxGeometry x="-550" y="270" width="310" height="20" as="geometry" />
        </mxCell>
        <mxCell id="k6UncSOy2LOsXlVmriAz-25" value="servicio a consumir" style="text;html=1;strokeColor=none;fillColor=none;align=center;verticalAlign=middle;whiteSpace=wrap;rounded=0;" vertex="1" parent="1">
          <mxGeometry x="-600" y="320" width="330" height="20" as="geometry" />
        </mxCell>
        <mxCell id="k6UncSOy2LOsXlVmriAz-26" value="KEYBE" style="rounded=1;whiteSpace=wrap;html=1;" vertex="1" parent="1">
          <mxGeometry x="-740" y="460" width="120" height="60" as="geometry" />
        </mxCell>
        <mxCell id="k6UncSOy2LOsXlVmriAz-27" value="Hostest" style="ellipse;whiteSpace=wrap;html=1;" vertex="1" parent="1">
          <mxGeometry x="-460" y="450" width="120" height="80" as="geometry" />
        </mxCell>
        <mxCell id="k6UncSOy2LOsXlVmriAz-29" value="" style="endArrow=classic;html=1;exitX=0;exitY=0.5;exitDx=0;exitDy=0;" edge="1" parent="1" source="k6UncSOy2LOsXlVmriAz-27">
          <mxGeometry width="50" height="50" relative="1" as="geometry">
            <mxPoint x="-510" y="489.5" as="sourcePoint" />
            <mxPoint x="-610" y="489.5" as="targetPoint" />
          </mxGeometry>
        </mxCell>
        <mxCell id="k6UncSOy2LOsXlVmriAz-30" value="usuario" style="rounded=1;whiteSpace=wrap;html=1;" vertex="1" parent="1">
          <mxGeometry x="-190" y="460" width="120" height="60" as="geometry" />
        </mxCell>
        <mxCell id="k6UncSOy2LOsXlVmriAz-31" value="" style="endArrow=classic;html=1;" edge="1" parent="1">
          <mxGeometry width="50" height="50" relative="1" as="geometry">
            <mxPoint x="-330" y="490" as="sourcePoint" />
            <mxPoint x="-200" y="490" as="targetPoint" />
            <Array as="points">
              <mxPoint x="-200" y="490" />
            </Array>
          </mxGeometry>
        </mxCell>
        <mxCell id="k6UncSOy2LOsXlVmriAz-32" value="&lt;div&gt;tipo de documento&lt;/div&gt;&lt;div&gt;&lt;br&gt;&lt;/div&gt;" style="text;html=1;strokeColor=none;fillColor=none;align=center;verticalAlign=middle;whiteSpace=wrap;rounded=0;" vertex="1" parent="1">
          <mxGeometry x="-280" y="500" width="40" height="20" as="geometry" />
        </mxCell>
        <mxCell id="k6UncSOy2LOsXlVmriAz-33" value="&lt;div&gt;numero de documento&lt;/div&gt;&lt;div&gt;&lt;br&gt;&lt;/div&gt;" style="text;html=1;strokeColor=none;fillColor=none;align=center;verticalAlign=middle;whiteSpace=wrap;rounded=0;" vertex="1" parent="1">
          <mxGeometry x="-280" y="510" width="40" height="70" as="geometry" />
        </mxCell>
        <mxCell id="k6UncSOy2LOsXlVmriAz-34" value="" style="endArrow=classic;html=1;" edge="1" parent="1">
          <mxGeometry width="50" height="50" relative="1" as="geometry">
            <mxPoint x="-400" y="550" as="sourcePoint" />
            <mxPoint x="-620" y="530" as="targetPoint" />
          </mxGeometry>
        </mxCell>
        <mxCell id="k6UncSOy2LOsXlVmriAz-35" value="" style="endArrow=classic;html=1;" edge="1" parent="1" target="k6UncSOy2LOsXlVmriAz-36">
          <mxGeometry width="50" height="50" relative="1" as="geometry">
            <mxPoint x="-680" y="550" as="sourcePoint" />
            <mxPoint x="-690" y="660" as="targetPoint" />
          </mxGeometry>
        </mxCell>
        <mxCell id="k6UncSOy2LOsXlVmriAz-36" value="comfama api" style="rounded=1;whiteSpace=wrap;html=1;" vertex="1" parent="1">
          <mxGeometry x="-730" y="710" width="120" height="60" as="geometry" />
        </mxCell>
        <mxCell id="k6UncSOy2LOsXlVmriAz-37" value="" style="endArrow=classic;html=1;" edge="1" parent="1">
          <mxGeometry width="50" height="50" relative="1" as="geometry">
            <mxPoint x="-640" y="690" as="sourcePoint" />
            <mxPoint x="-650" y="550" as="targetPoint" />
          </mxGeometry>
        </mxCell>
        <mxCell id="k6UncSOy2LOsXlVmriAz-38" value="&lt;div&gt;datos de usuarios&lt;/div&gt;&lt;div&gt;&lt;br&gt;&lt;/div&gt;" style="text;html=1;strokeColor=none;fillColor=none;align=center;verticalAlign=middle;whiteSpace=wrap;rounded=0;" vertex="1" parent="1">
          <mxGeometry x="-630" y="620" width="40" height="20" as="geometry" />
        </mxCell>
        <mxCell id="k6UncSOy2LOsXlVmriAz-39" value="&lt;div&gt;usuario afiliado y vigente en comfama&lt;/div&gt;&lt;div&gt;&lt;br&gt;&lt;/div&gt;" style="text;html=1;strokeColor=none;fillColor=none;align=center;verticalAlign=middle;whiteSpace=wrap;rounded=0;" vertex="1" parent="1">
          <mxGeometry x="-780" y="790" width="250" height="20" as="geometry" />
        </mxCell>
        <mxCell id="k6UncSOy2LOsXlVmriAz-40" value="Text" style="text;html=1;strokeColor=none;fillColor=none;align=center;verticalAlign=middle;whiteSpace=wrap;rounded=0;" vertex="1" parent="1">
          <mxGeometry x="-480" y="170" width="40" height="20" as="geometry" />
        </mxCell>
      </root>
    </mxGraphModel>
  </diagram>
</mxfile>
